<svg width="18" height="17" viewBox="0 0 18 17" fill="none" xmlns="http://www.w3.org/2000/svg">
<path d="M15.9376 7.35073C16.5723 7.35073 17.0869 7.86528 17.0869 8.50001C17.0869 9.13474 16.5723 9.64928 15.9376 9.64928V7.35073ZM1.31245 9.31266C0.863625 8.86385 0.863625 8.13617 1.31245 7.68736L8.62634 0.373447C9.07517 -0.0753695 9.80284 -0.0753695 10.2517 0.373447C10.7004 0.822265 10.7004 1.54994 10.2517 1.99876L3.75042 8.50001L10.2517 15.0012C10.7004 15.45 10.7004 16.1777 10.2517 16.6265C9.80284 17.0753 9.07517 17.0753 8.62634 16.6265L1.31245 9.31266ZM15.9376 9.64928H2.1251V7.35073H15.9376V9.64928Z" fill="#333333"/>
</svg>
