<svg width="32" height="30" viewBox="0 0 32 30" fill="none" xmlns="http://www.w3.org/2000/svg">
<path d="M29.2946 11.1888C29.2946 10.3714 28.9039 9.6043 28.2442 9.12394L16.4161 0.491683C15.5325 -0.153585 14.3369 -0.164339 13.4407 0.463005L1.08921 9.12572C0.408098 9.6043 0.0012207 10.3858 0.0012207 11.2193C0.0012207 11.7857 0.460078 12.2463 1.02827 12.2463H28.2371C28.8214 12.2463 29.2946 11.7731 29.2946 11.1888Z" fill="url(#paint0_linear_40_597)"/>
<path d="M0 26.1016V27.4423C0 28.8547 1.14535 30.0001 2.55777 30.0001H26.7374C28.1498 30.0001 29.2951 28.8547 29.2951 27.4423V26.1016H0Z" fill="url(#paint1_linear_40_597)"/>
<path d="M15.2191 13.2432H14.0719C13.2205 13.2432 12.5322 13.9332 12.5322 14.7828V23.5137C12.5322 24.3651 13.2223 25.0534 14.0719 25.0534H15.2191C16.0705 25.0534 16.7587 24.3633 16.7587 23.5137V14.7846C16.7605 13.9332 16.0705 13.2432 15.2191 13.2432Z" fill="#F2994A"/>
<path d="M23.6189 13.2432H22.4719C21.6205 13.2432 20.9321 13.9332 20.9321 14.7828V23.5137C20.9321 24.3651 21.6223 25.0534 22.4719 25.0534H23.6189C24.4704 25.0534 25.1587 24.3633 25.1587 23.5137V14.7846C25.1587 13.9332 24.4704 13.2432 23.6189 13.2432Z" fill="#F2994A"/>
<path d="M6.82184 13.2432H5.67469C4.8233 13.2432 4.13501 13.9332 4.13501 14.7828V23.5137C4.13501 24.3651 4.82509 25.0534 5.67469 25.0534H6.82184C7.67323 25.0534 8.36151 24.3633 8.36151 23.5137V14.7846C8.36151 13.9332 7.67143 13.2432 6.82184 13.2432Z" fill="#F2994A"/>
<g clip-path="url(#clip0_40_597)">
<path d="M28.0903 13.5013C29.2984 9.28999 30.5099 5.07863 31.7224 0.869486C31.7731 0.691854 31.8129 0.519736 31.7169 0.366376C31.7157 0.363066 31.7124 0.359756 31.7102 0.357549C31.7069 0.356446 31.7036 0.353136 31.7014 0.350929C31.5469 0.253838 31.3749 0.293557 31.1972 0.344309C26.9869 1.55685 22.7767 2.76829 18.5664 3.97642C17.9276 4.15957 17.4995 4.48064 17.4896 5.31805C17.483 5.87081 17.7776 6.21725 18.2101 6.44674C18.2961 6.49198 18.4462 6.54935 18.5389 6.57804C20.0537 7.03039 21.5708 7.48277 23.0889 7.9307C24.0356 7.20141 24.9811 6.47211 25.9278 5.74393C26.3768 5.39859 26.8259 5.05436 27.2749 4.71012C27.2936 4.69578 27.3146 4.68254 27.3334 4.6693C27.3367 4.67261 27.34 4.67702 27.3433 4.68034C27.2981 4.73991 27.2539 4.79949 27.2087 4.85907C26.1782 6.21174 25.1477 7.56441 24.1172 8.91706C24.5707 10.4551 25.0296 11.9909 25.4886 13.5278C25.5162 13.6216 25.5736 13.7706 25.6189 13.8566C25.8484 14.2891 26.1959 14.5837 26.7486 14.5771C27.5861 14.5671 27.9071 14.1379 28.0903 13.5013Z" fill="#F2994A"/>
</g>
<defs>
<linearGradient id="paint0_linear_40_597" x1="14.6479" y1="2.67888" x2="14.6479" y2="12.2463" gradientUnits="userSpaceOnUse">
<stop stop-color="#0F035B"/>
<stop offset="1" stop-color="#1D06AD"/>
</linearGradient>
<linearGradient id="paint1_linear_40_597" x1="9.73353" y1="26.1016" x2="27.5941" y2="26.1016" gradientUnits="userSpaceOnUse">
<stop offset="0.00627653" stop-color="#0F035B"/>
<stop offset="1" stop-color="#1D06AD"/>
</linearGradient>
<clipPath id="clip0_40_597">
<rect width="15" height="15" fill="white" transform="translate(17)"/>
</clipPath>
</defs>
</svg>
