<svg width="45" height="35" viewBox="0 0 45 35" fill="none" xmlns="http://www.w3.org/2000/svg">
<path d="M38.603 29.3512H6.04785C3.44675 29.3512 1.33746 27.242 1.33746 24.6408V5.48675C1.33746 2.88565 3.44675 0.776367 6.04785 0.776367H38.603C41.2041 0.776367 43.3135 2.88565 43.3135 5.48675V24.6408C43.3135 27.242 41.2041 29.3512 38.603 29.3512Z" fill="url(#paint0_linear_99_156)"/>
<path d="M33.9322 34.0572H10.7213C9.96939 34.0572 9.35956 33.4474 9.35956 32.6954C9.35956 31.9436 9.96939 31.3337 10.7213 31.3337H33.9322C34.6842 31.3337 35.294 31.9436 35.294 32.6954C35.294 33.4474 34.6842 34.0572 33.9322 34.0572Z" fill="#F2994A"/>
<mask id="mask0_99_156" style="mask-type:alpha" maskUnits="userSpaceOnUse" x="1" y="0" width="43" height="30">
<path d="M38.603 29.4037H6.04781C3.42268 29.4037 1.28497 27.2682 1.28497 24.6408V5.48672C1.28497 2.86158 3.42268 0.723877 6.04781 0.723877H38.603C41.2303 0.723877 43.3658 2.86158 43.3658 5.48672V24.6408C43.368 27.2682 41.2303 29.4037 38.603 29.4037ZM6.04781 0.83098C3.47951 0.83098 1.39208 2.9206 1.39208 5.48672V24.6408C1.39208 27.2092 3.4817 29.2965 6.04781 29.2965H38.603C41.1713 29.2965 43.2588 27.207 43.2588 24.6408V5.48672C43.2588 2.91842 41.1691 0.83098 38.603 0.83098H6.04781Z" fill="url(#paint1_linear_99_156)"/>
</mask>
<g mask="url(#mask0_99_156)">
<path d="M38.603 29.4037H6.04781C3.42268 29.4037 1.28497 27.2682 1.28497 24.6408V5.48672C1.28497 2.86158 3.42268 0.723877 6.04781 0.723877H38.603C41.2303 0.723877 43.3658 2.86158 43.3658 5.48672V24.6408C43.368 27.2682 41.2303 29.4037 38.603 29.4037ZM6.04781 0.83098C3.47951 0.83098 1.39208 2.9206 1.39208 5.48672V24.6408C1.39208 27.2092 3.4817 29.2965 6.04781 29.2965H38.603C41.1713 29.2965 43.2588 27.207 43.2588 24.6408V5.48672C43.2588 2.91842 41.1691 0.83098 38.603 0.83098H6.04781Z" fill="#9BE5C9"/>
</g>
<defs>
<linearGradient id="paint0_linear_99_156" x1="7.00006" y1="15" x2="30.5001" y2="15" gradientUnits="userSpaceOnUse">
<stop stop-color="#0F035B"/>
<stop offset="1" stop-color="#1D06AD"/>
</linearGradient>
<linearGradient id="paint1_linear_99_156" x1="1.28497" y1="15.0641" x2="43.3673" y2="15.0641" gradientUnits="userSpaceOnUse">
<stop offset="0.00256574" stop-color="#999999"/>
<stop offset="1" stop-color="#E6E6E6"/>
</linearGradient>
</defs>
</svg>
