<svg width="29" height="49" viewBox="0 0 29 49" fill="none" xmlns="http://www.w3.org/2000/svg">
<path d="M28.2356 3.90184C28.2323 2.2217 27.3023 1.0263 25.6844 0.593983H25.6812C25.5206 0.551408 25.2521 0.515381 25.085 0.515381H4.09821C3.31873 0.515381 2.5458 0.757739 1.93665 1.24573C0.963937 2.03176 0.688831 3.19768 0.692106 4.51099C0.728131 17.9716 0.711756 31.4355 0.711756 44.8995C0.711756 47.1101 2.05126 48.443 4.27178 48.443H24.6331C26.9158 48.443 28.2388 47.1265 28.2388 44.8503V12.607C28.2388 9.7053 28.2388 6.80357 28.2356 3.90184ZM16.7925 5.2872C16.013 5.29374 15.2335 5.2872 14.4508 5.2872C13.6877 5.2872 12.9213 5.29047 12.1582 5.2872C11.6047 5.28391 11.2838 4.9957 11.2903 4.53064C11.2969 4.08524 11.6113 3.79703 12.1353 3.79703C13.6942 3.79047 15.2564 3.79047 16.8154 3.79703C17.3394 3.79703 17.6571 4.08851 17.6604 4.53391C17.6669 4.9957 17.3427 5.28391 16.7925 5.2872Z" fill="url(#paint0_linear_283_94)"/>
<path d="M20.3757 5.13325C20.389 5.99131 19.7863 6.52516 18.7644 6.53498C17.3202 6.54481 15.8759 6.53825 14.4315 6.53825C13.0167 6.53825 11.6019 6.54481 10.187 6.53498C9.16191 6.52842 8.56583 5.9946 8.57895 5.13325C8.59204 4.30792 9.175 3.77408 10.1444 3.77081C13.0331 3.75771 15.9217 3.75771 18.8071 3.77081C19.7765 3.77081 20.3627 4.30792 20.3757 5.13325Z" fill="white"/>
<path d="M18.5842 42.2235C18.6104 44.2312 16.9729 45.8917 14.962 45.9015C12.938 45.9113 11.2939 44.2869 11.2873 42.276C11.2808 40.2748 12.9478 38.6112 14.9423 38.6177C16.9172 38.6242 18.5613 40.2487 18.5842 42.2235Z" fill="white"/>
<path d="M16.4681 21.3089C17.0318 21.4189 17.55 21.6946 17.9562 22.1008C18.3623 22.5069 18.6381 23.0251 18.7481 23.5889M16.4681 19C17.6394 19.1301 18.7317 19.6547 19.5655 20.4875C20.3994 21.3203 20.9253 22.4119 21.0569 23.5831M20.4797 28.1892V29.9209C20.4803 30.0816 20.4474 30.2408 20.383 30.3881C20.3186 30.5353 20.2242 30.6676 20.1057 30.7762C19.9873 30.8849 19.8474 30.9677 19.6951 31.0192C19.5428 31.0707 19.3815 31.0898 19.2214 31.0753C17.4452 30.8823 15.739 30.2754 14.24 29.3033C12.8454 28.4171 11.6629 27.2346 10.7767 25.84C9.80123 24.3342 9.19415 22.6197 9.00469 20.8355C8.99026 20.6759 9.00923 20.515 9.06039 20.3632C9.11154 20.2113 9.19376 20.0717 9.30182 19.9533C9.40987 19.835 9.54138 19.7404 9.68799 19.6756C9.83459 19.6109 9.99307 19.5774 10.1533 19.5772H11.885C12.1651 19.5745 12.4367 19.6737 12.6491 19.8563C12.8615 20.039 13.0002 20.2926 13.0394 20.57C13.1125 21.1242 13.248 21.6683 13.4435 22.192C13.5211 22.3986 13.5379 22.6231 13.4919 22.839C13.4459 23.0548 13.3389 23.253 13.1837 23.4099L12.4507 24.143C13.2723 25.5881 14.4689 26.7846 15.9139 27.6063L16.647 26.8732C16.8039 26.718 17.0021 26.6111 17.2179 26.565C17.4338 26.519 17.6583 26.5358 17.8649 26.6135C18.3886 26.8089 18.9327 26.9444 19.4869 27.0175C19.7673 27.0571 20.0234 27.1983 20.2064 27.4143C20.3895 27.6304 20.4867 27.9062 20.4797 28.1892Z" stroke="#F2994A" stroke-linecap="round" stroke-linejoin="round"/>
<defs>
<linearGradient id="paint0_linear_283_94" x1="14.3846" y1="14.4232" x2="14.3846" y2="35.577" gradientUnits="userSpaceOnUse">
<stop stop-color="#0F035B"/>
<stop offset="1" stop-color="#1D06AD"/>
</linearGradient>
</defs>
</svg>
