<svg width="47" height="35" viewBox="0 0 47 35" fill="none" xmlns="http://www.w3.org/2000/svg">
<g clip-path="url(#clip0_99_119)">
<path d="M42.0131 34.7771H11.0402C8.56589 34.7771 6.56006 32.7713 6.56006 30.297V12.0761C6.56006 9.60178 8.56589 7.59595 11.0402 7.59595H42.0131C44.4875 7.59595 46.4933 9.60178 46.4933 12.0761V30.2996C46.4933 32.7713 44.4875 34.7771 42.0131 34.7771Z" fill="#F2994A"/>
<mask id="mask0_99_119" style="mask-type:alpha" maskUnits="userSpaceOnUse" x="0" y="1" width="40" height="27">
<path d="M34.7042 27.9547H4.5544C2.1448 27.9547 0.193298 26.0005 0.193298 23.5935V5.85403C0.193298 3.44442 2.14739 1.49292 4.5544 1.49292H34.7042C37.1138 1.49292 39.0653 3.447 39.0653 5.85403V23.5935C39.068 26.0032 37.1138 27.9547 34.7042 27.9547Z" fill="url(#paint0_linear_99_119)"/>
</mask>
<g mask="url(#mask0_99_119)">
<path d="M34.7042 27.9547H4.5544C2.1448 27.9547 0.193298 26.0005 0.193298 23.5935V5.85402C0.193298 3.44442 2.14739 1.49292 4.5544 1.49292H34.7042C37.1138 1.49292 39.0653 3.447 39.0653 5.85402V23.5935C39.068 26.0032 37.1138 27.9547 34.7042 27.9547Z" fill="url(#paint1_linear_99_119)"/>
<path d="M27.6514 22.1466H6.15387C5.45765 22.1466 4.89343 21.5824 4.89343 20.8862C4.89343 20.1899 5.45765 19.6257 6.15387 19.6257H27.6514C28.3477 19.6257 28.9119 20.1899 28.9119 20.8862C28.9119 21.5824 28.3477 22.1466 27.6514 22.1466Z" fill="white"/>
</g>
<mask id="mask1_99_119" style="mask-type:alpha" maskUnits="userSpaceOnUse" x="0" y="1" width="40" height="28">
<path d="M34.7042 28.0036H4.55432C2.12402 28.0036 0.144043 26.0262 0.144043 23.5934V5.85388C0.144043 3.42357 2.12402 1.4436 4.55432 1.4436H34.7042C37.137 1.4436 39.1145 3.42357 39.1145 5.85388V23.5934C39.117 26.0262 37.137 28.0036 34.7042 28.0036ZM4.55432 1.54196C2.17577 1.54196 0.242395 3.47533 0.242395 5.85388V23.5934C0.242395 25.9719 2.17577 27.9052 4.55432 27.9052H34.7042C37.0827 27.9052 39.0162 25.9719 39.0162 23.5934V5.85388C39.0162 3.47533 37.0827 1.54196 34.7042 1.54196H4.55432Z" fill="url(#paint2_linear_99_119)"/>
</mask>
<g mask="url(#mask1_99_119)">
<path d="M34.7042 28.0036H4.55432C2.12402 28.0036 0.144043 26.0262 0.144043 23.5934V5.85388C0.144043 3.42357 2.12402 1.4436 4.55432 1.4436H34.7042C37.137 1.4436 39.1145 3.42357 39.1145 5.85388V23.5934C39.117 26.0262 37.137 28.0036 34.7042 28.0036ZM4.55432 1.54196C2.17577 1.54196 0.242395 3.47533 0.242395 5.85388V23.5934C0.242395 25.9719 2.17577 27.9052 4.55432 27.9052H34.7042C37.0827 27.9052 39.0162 25.9719 39.0162 23.5934V5.85388C39.0162 3.47533 37.0827 1.54196 34.7042 1.54196H4.55432Z" fill="#0F035B"/>
</g>
</g>
<defs>
<linearGradient id="paint0_linear_99_119" x1="0.193608" y1="14.7243" x2="39.0672" y2="14.7243" gradientUnits="userSpaceOnUse">
<stop offset="0.00129175" stop-color="#E6E6E6"/>
<stop offset="1" stop-color="#999999"/>
</linearGradient>
<linearGradient id="paint1_linear_99_119" x1="14.9999" y1="15" x2="38.9999" y2="15" gradientUnits="userSpaceOnUse">
<stop stop-color="#0F035B"/>
<stop offset="1" stop-color="#1D06AD"/>
</linearGradient>
<linearGradient id="paint2_linear_99_119" x1="0.144043" y1="14.7242" x2="39.1167" y2="14.7242" gradientUnits="userSpaceOnUse">
<stop offset="0.00256574" stop-color="#999999"/>
<stop offset="1" stop-color="#E6E6E6"/>
</linearGradient>
<clipPath id="clip0_99_119">
<rect width="46.6667" height="35" fill="white"/>
</clipPath>
</defs>
</svg>
