<svg width="21" height="21" viewBox="0 0 21 21" fill="none" xmlns="http://www.w3.org/2000/svg">
<path d="M12.7028 4.6181C13.5863 4.79047 14.3983 5.22255 15.0348 5.85905C15.6713 6.49554 16.1033 7.30749 16.2757 8.19097M12.7028 1C14.5384 1.20391 16.25 2.02589 17.5567 3.33097C18.8635 4.63605 19.6876 6.34665 19.8938 8.18193M18.9893 15.4V18.1136C18.9903 18.3655 18.9387 18.6149 18.8378 18.8457C18.7369 19.0765 18.5889 19.2837 18.4032 19.454C18.2176 19.6243 17.9985 19.7539 17.7598 19.8347C17.5212 19.9154 17.2683 19.9453 17.0174 19.9227C14.2341 19.6202 11.5604 18.6691 9.21138 17.1458C7.02589 15.757 5.17298 13.9041 3.78423 11.7186C2.25557 9.3589 1.30425 6.67227 1.00734 3.87639C0.984738 3.62626 1.01446 3.37416 1.09463 3.13615C1.17479 2.89813 1.30364 2.67942 1.47296 2.49393C1.64228 2.30844 1.84837 2.16024 2.07811 2.05877C2.30785 1.95729 2.5562 1.90476 2.80735 1.90452H5.52092C5.95989 1.9002 6.38546 2.05565 6.7183 2.34189C7.05113 2.62813 7.26853 3.02563 7.32997 3.46031C7.4445 4.32871 7.65691 5.18137 7.96314 6.00202C8.08483 6.32577 8.11117 6.67762 8.03903 7.01589C7.96689 7.35415 7.79929 7.66464 7.5561 7.91057L6.40735 9.05932C7.695 11.3238 9.56998 13.1988 11.8345 14.4865L12.9832 13.3377C13.2292 13.0945 13.5397 12.9269 13.8779 12.8548C14.2162 12.7826 14.568 12.809 14.8918 12.9307C15.7124 13.2369 16.5651 13.4493 17.4335 13.5638C17.8729 13.6258 18.2742 13.8472 18.561 14.1857C18.8479 14.5243 19.0003 14.9564 18.9893 15.4Z" stroke="url(#paint0_linear_25_955)" stroke-width="2" stroke-linecap="round" stroke-linejoin="round"/>
<defs>
<linearGradient id="paint0_linear_25_955" x1="12.7588" y1="10.0452" x2="17.2813" y2="5.52244" gradientUnits="userSpaceOnUse">
<stop stop-color="#0F035B"/>
<stop offset="1" stop-color="#F2994A"/>
</linearGradient>
</defs>
</svg>
