<svg width="27" height="21" viewBox="0 0 27 21" fill="none" xmlns="http://www.w3.org/2000/svg">
<g clip-path="url(#clip0_25_929)">
<path d="M4.10154 0.17981H23.1716C25.1261 0.17981 26.7119 1.76395 26.7119 3.72007V16.3002V20.0623L22.9497 16.3002H4.10154C2.14542 16.2986 0.561279 14.7144 0.561279 12.76V3.72007C0.561279 1.76558 2.14542 0.17981 4.10154 0.17981Z" fill="#0F035B"/>
<path d="M18.5254 5.72018H4.09355C3.62532 5.72018 3.24683 5.34169 3.24683 4.87346C3.24683 4.40523 3.62532 4.02673 4.09355 4.02673H18.5254C18.9936 4.02673 19.3721 4.40523 19.3721 4.87346C19.3721 5.34005 18.9936 5.72018 18.5254 5.72018Z" fill="#F2994A"/>
<path d="M13.1677 10.3275H4.75755C4.26648 10.3275 3.86841 9.92941 3.86841 9.43834C3.86841 8.94727 4.26648 8.54919 4.75755 8.54919H13.1677C13.6588 8.54919 14.0568 8.94727 14.0568 9.43834C14.0568 9.92941 13.6588 10.3275 13.1677 10.3275Z" fill="white"/>
</g>
<defs>
<clipPath id="clip0_25_929">
<rect width="27" height="21" fill="white"/>
</clipPath>
</defs>
</svg>
