<svg width="20" height="18" viewBox="0 0 20 18" fill="none" xmlns="http://www.w3.org/2000/svg">
<path d="M9.72497 6.50462C11.9341 6.50462 13.725 8.2955 13.725 10.5046C13.725 12.7138 11.9341 14.5046 9.72497 14.5046C7.51583 14.5046 5.72497 12.7138 5.72497 10.5046C5.72497 8.2955 7.51583 6.50462 9.72497 6.50462ZM9.72497 3C14.3385 3 18.3211 6.15001 19.4261 10.5644C19.5267 10.9662 19.2825 11.3735 18.8807 11.4741C18.4789 11.5746 18.0716 11.3305 17.971 10.9286C17.0321 7.17796 13.6464 4.5 9.72497 4.5C5.8019 4.5 2.41506 7.18026 1.47782 10.9332C1.37746 11.335 0.970325 11.5794 0.568455 11.4791C0.166585 11.3787 -0.0778353 10.9716 0.0225247 10.5697C1.12561 6.15272 5.10945 3 9.72497 3Z" fill="#0F035B"/>
<path d="M3 1L17 17" stroke="#0F035B" stroke-width="1.5" stroke-linecap="round"/>
</svg>
