<svg width="70" height="70" viewBox="0 0 70 70" fill="none" xmlns="http://www.w3.org/2000/svg">
<g clip-path="url(#clip0_327_132)">
<path d="M56.4375 29.2834C54.4542 19.2209 45.6167 11.6667 35 11.6667C30.6833 11.6667 26.6875 12.9209 23.3042 15.0792L27.5625 19.3376C29.7792 18.1709 32.3167 17.5001 35 17.5001C43.8667 17.5001 51.0417 24.6751 51.0417 33.5417V35.0001H55.4167C60.2583 35.0001 64.1667 38.9084 64.1667 43.7501C64.1667 47.0459 62.3 49.9043 59.6167 51.3918L63.8458 55.6209C67.55 52.9667 70 48.6501 70 43.7501C70 36.0501 64.0208 29.8084 56.4375 29.2834ZM8.75 15.3709L16.7708 23.3626C7.46667 23.7709 0 31.4126 0 40.8334C0 50.4876 7.84583 58.3334 17.5 58.3334H51.7125L57.5458 64.1667L61.25 60.4626L12.4542 11.6667L8.75 15.3709ZM22.5458 29.1667L45.8792 52.5001H17.5C11.0542 52.5001 5.83333 47.2792 5.83333 40.8334C5.83333 34.3876 11.0542 29.1667 17.5 29.1667H22.5458Z" fill="#333333"/>
</g>
<defs>
<clipPath id="clip0_327_132">
<rect width="70" height="70" fill="white"/>
</clipPath>
</defs>
</svg>
