<svg width="35" height="26" viewBox="0 0 35 26" fill="none" xmlns="http://www.w3.org/2000/svg">
<path d="M19.0147 19.9084V24.2965C19.0147 24.8172 18.559 25.2412 17.9965 25.2412H1.6041C1.04161 25.2412 0.585938 24.8172 0.585938 24.2965V19.9084C0.585938 16.7521 2.28177 14.1916 6.75336 14.1916C6.90191 14.1949 7.06047 14.1966 7.22738 14.1966C7.95679 14.1999 8.84643 14.1699 9.80117 14.1582C10.7542 14.1716 11.6439 14.2017 12.3733 14.1966C12.5402 14.1966 12.6988 14.1949 12.8474 14.1916C17.319 14.1916 19.0147 16.7503 19.0147 19.9084Z" fill="#F2994A"/>
<path d="M34.883 20.2367V24.6249C34.883 25.1456 34.4273 25.5696 33.8648 25.5696H17.4724C16.9099 25.5696 16.4542 25.1456 16.4542 24.6249V20.2367C16.4542 17.0804 18.1501 14.5199 22.6216 14.5199C22.7702 14.5233 22.9288 14.525 23.0957 14.525C23.8251 14.5283 24.7147 14.4983 25.6695 14.4866C26.6225 14.5 27.5122 14.53 28.2416 14.525C28.4085 14.525 28.5671 14.5233 28.7157 14.5199C33.1872 14.5199 34.883 17.0787 34.883 20.2367Z" fill="url(#paint0_linear_467_88)"/>
<path d="M10.4085 12.3215C13.6187 11.8005 15.7988 8.77569 15.2778 5.56542C14.7568 2.35515 11.732 0.175077 8.52173 0.696083C5.31145 1.21709 3.13137 4.24188 3.65238 7.45215C4.17339 10.6624 7.19819 12.8425 10.4085 12.3215Z" fill="#F2994A"/>
<path d="M26.2765 12.6496C29.4868 12.1286 31.6669 9.10381 31.1459 5.89355C30.6249 2.68328 27.6 0.503202 24.3898 1.02421C21.1795 1.54521 18.9994 4.57001 19.5204 7.78027C20.0414 10.9905 23.0662 13.1706 26.2765 12.6496Z" fill="url(#paint1_linear_467_88)"/>
<path d="M26.0201 19.9084V24.2965C26.0201 24.8172 25.5645 25.2412 25.002 25.2412H8.60947C8.04697 25.2412 7.59131 24.8172 7.59131 24.2965V19.9084C7.59131 16.7521 9.28713 14.1916 13.7587 14.1916C13.9073 14.1949 14.0658 14.1966 14.2328 14.1966C14.9622 14.1999 15.8518 14.1699 16.8066 14.1582C17.7597 14.1716 18.6492 14.2017 19.3786 14.1966C19.5456 14.1966 19.7041 14.1949 19.8527 14.1916C24.3243 14.1916 26.0201 16.7503 26.0201 19.9084Z" fill="url(#paint2_linear_467_88)"/>
<path d="M17.4126 12.3215C20.6228 11.8005 22.8029 8.77569 22.2819 5.56542C21.7609 2.35515 18.7361 0.175077 15.5259 0.696083C12.3156 1.21709 10.1355 4.24188 10.6565 7.45215C11.1775 10.6624 14.2023 12.8425 17.4126 12.3215Z" fill="url(#paint3_linear_467_88)"/>
<defs>
<linearGradient id="paint0_linear_467_88" x1="25.6686" y1="16.911" x2="25.6686" y2="25.5696" gradientUnits="userSpaceOnUse">
<stop stop-color="#0F035B"/>
<stop offset="1" stop-color="#F2994A"/>
</linearGradient>
<linearGradient id="paint1_linear_467_88" x1="25.3331" y1="3.52398" x2="25.3331" y2="12.7266" gradientUnits="userSpaceOnUse">
<stop stop-color="#0F035B"/>
<stop offset="1" stop-color="#F2994A"/>
</linearGradient>
<linearGradient id="paint2_linear_467_88" x1="16.8057" y1="16.5826" x2="16.8057" y2="25.2412" gradientUnits="userSpaceOnUse">
<stop stop-color="#0F035B"/>
<stop offset="1" stop-color="#1D06AD"/>
</linearGradient>
<linearGradient id="paint3_linear_467_88" x1="16.4692" y1="3.19586" x2="16.4692" y2="12.3984" gradientUnits="userSpaceOnUse">
<stop stop-color="#0F035B"/>
<stop offset="1" stop-color="#1D06AD"/>
</linearGradient>
</defs>
</svg>
