<svg width="41" height="30" viewBox="0 0 41 30" fill="none" xmlns="http://www.w3.org/2000/svg">
<path d="M21.9714 23.0035V28.0957C21.9714 28.7 21.4426 29.192 20.7899 29.192H1.76746C1.11472 29.192 0.585938 28.7 0.585938 28.0957V23.0035C0.585938 19.3408 2.55384 16.3695 7.74284 16.3695C7.91523 16.3734 8.09923 16.3754 8.29291 16.3754C9.13936 16.3792 10.1717 16.3444 11.2796 16.3308C12.3856 16.3464 13.418 16.3812 14.2644 16.3754C14.4581 16.3754 14.6421 16.3734 14.8146 16.3695C20.0036 16.3695 21.9714 19.3388 21.9714 23.0035Z" fill="#F2994A"/>
<path d="M40.3855 23.3844V28.4765C40.3855 29.0808 39.8566 29.5728 39.2039 29.5728H20.1815C19.5288 29.5728 19 29.0808 19 28.4765V23.3844C19 19.7217 20.9679 16.7504 26.1569 16.7504C26.3293 16.7542 26.5133 16.7562 26.707 16.7562C27.5534 16.7601 28.5858 16.7252 29.6937 16.7117C30.7997 16.7272 31.8321 16.7621 32.6785 16.7562C32.8722 16.7562 33.0562 16.7542 33.2286 16.7504C38.4176 16.7504 40.3855 19.7197 40.3855 23.3844Z" fill="url(#paint0_linear_393_78)"/>
<path d="M11.9837 14.199C15.709 13.5944 18.2389 10.0843 17.6343 6.35899C17.0298 2.63368 13.5196 0.103832 9.7943 0.708427C6.06897 1.31302 3.53913 4.8231 4.14373 8.54842C4.74833 12.2737 8.25842 14.8036 11.9837 14.199Z" fill="#F2994A"/>
<path d="M30.3978 14.5798C34.1231 13.9752 36.653 10.4652 36.0484 6.73985C35.4438 3.01454 31.9337 0.484692 28.2084 1.08929C24.483 1.69388 21.9532 5.20396 22.5578 8.92928C23.1624 12.6546 26.6725 15.1844 30.3978 14.5798Z" fill="url(#paint1_linear_393_78)"/>
<path d="M30.1005 23.0035V28.0957C30.1005 28.7 29.5718 29.192 28.9191 29.192H9.8966C9.24386 29.192 8.71509 28.7 8.71509 28.0957V23.0035C8.71509 19.3408 10.683 16.3695 15.872 16.3695C16.0444 16.3734 16.2284 16.3754 16.4221 16.3754C17.2685 16.3792 18.3008 16.3444 19.4088 16.3308C20.5148 16.3464 21.5471 16.3812 22.3935 16.3754C22.5872 16.3754 22.7712 16.3734 22.9437 16.3695C28.1327 16.3695 30.1005 19.3388 30.1005 23.0035Z" fill="url(#paint2_linear_393_78)"/>
<path d="M20.1121 14.199C23.8374 13.5944 26.3673 10.0843 25.7627 6.35899C25.1581 2.63368 21.648 0.103832 17.9227 0.708427C14.1974 1.31302 11.6675 4.8231 12.2721 8.54842C12.8767 12.2737 16.3868 14.8036 20.1121 14.199Z" fill="url(#paint3_linear_393_78)"/>
<defs>
<linearGradient id="paint0_linear_393_78" x1="29.6927" y1="19.525" x2="29.6927" y2="29.5728" gradientUnits="userSpaceOnUse">
<stop stop-color="#0F035B"/>
<stop offset="1" stop-color="#F2994A"/>
</linearGradient>
<linearGradient id="paint1_linear_393_78" x1="29.3031" y1="3.99012" x2="29.3031" y2="14.6691" gradientUnits="userSpaceOnUse">
<stop stop-color="#0F035B"/>
<stop offset="1" stop-color="#F2994A"/>
</linearGradient>
<linearGradient id="paint2_linear_393_78" x1="19.4078" y1="19.1442" x2="19.4078" y2="29.192" gradientUnits="userSpaceOnUse">
<stop stop-color="#0F035B"/>
<stop offset="1" stop-color="#1D06AD"/>
</linearGradient>
<linearGradient id="paint3_linear_393_78" x1="19.0174" y1="3.60926" x2="19.0174" y2="14.2883" gradientUnits="userSpaceOnUse">
<stop stop-color="#0F035B"/>
<stop offset="1" stop-color="#1D06AD"/>
</linearGradient>
</defs>
</svg>
