<svg width="42" height="45" viewBox="0 0 42 45" fill="none" xmlns="http://www.w3.org/2000/svg">
<path d="M11.882 32.5044H9.10763C7.05064 32.5044 5.38184 34.1731 5.38184 36.2301V40.466C5.38184 42.523 7.05064 44.1917 9.10763 44.1917H11.8839C13.9409 44.1917 15.6097 42.523 15.6097 40.466V36.2301C15.6078 34.1731 13.9409 32.5044 11.882 32.5044Z" fill="#F2994A"/>
<path d="M23.9464 22.5088H21.172C19.115 22.5088 17.4462 24.1776 17.4462 26.2346V40.466C17.4462 42.523 19.115 44.1919 21.172 44.1919H23.9483C26.0053 44.1919 27.6742 42.523 27.6742 40.466V26.2346C27.6722 24.1757 26.0034 22.5088 23.9464 22.5088Z" fill="#F2994A"/>
<path d="M36.0103 15.6204H33.234C31.177 15.6204 29.5081 17.2892 29.5081 19.3462V40.466C29.5081 42.523 31.177 44.1917 33.234 44.1917H36.0103C38.0673 44.1917 39.736 42.523 39.736 40.466V19.3462C39.736 17.2892 38.0673 15.6204 36.0103 15.6204Z" fill="url(#paint0_linear_260_83)"/>
<path d="M12 22C17.5228 22 22 17.5228 22 12C22 6.47715 17.5228 2 12 2C6.47715 2 2 6.47715 2 12C2 17.5228 6.47715 22 12 22Z" stroke="#F2994A" stroke-width="2" stroke-linecap="round" stroke-linejoin="round"/>
<path d="M2 12H22" stroke="#F2994A" stroke-width="2" stroke-linecap="round" stroke-linejoin="round"/>
<path d="M12 2C14.5013 4.73835 15.9228 8.29203 16 12C15.9228 15.708 14.5013 19.2616 12 22C9.49872 19.2616 8.07725 15.708 8 12C8.07725 8.29203 9.49872 4.73835 12 2V2Z" stroke="#F2994A" stroke-width="2" stroke-linecap="round" stroke-linejoin="round"/>
<defs>
<linearGradient id="paint0_linear_260_83" x1="34.622" y1="15.6204" x2="35.0001" y2="32.9999" gradientUnits="userSpaceOnUse">
<stop stop-color="#0F035B"/>
<stop offset="1" stop-color="#1D06AD"/>
</linearGradient>
</defs>
</svg>
