<svg width="37" height="45" viewBox="0 0 37 45" fill="none" xmlns="http://www.w3.org/2000/svg">
<path d="M4.48362 15.1104H17.3667L13.0381 27.3217C12.7965 28.002 13.302 28.7166 14.0234 28.7166H15.6788C16.599 28.7166 17.0703 29.8203 16.4345 30.4851L4.1049 43.3545C3.36462 44.1274 2.07767 43.4195 2.33472 42.3794L5.30103 30.3994C5.46382 29.7397 4.96515 29.1022 4.28655 29.1022H1.95772C1.26541 29.1022 0.765033 28.4424 0.950106 27.7758L4.48362 15.1104Z" fill="url(#paint0_linear_99_149)"/>
<path d="M22.4836 0.110352H35.3667L31.0381 12.3217C30.7965 13.002 31.302 13.7166 32.0234 13.7166H33.6788C34.599 13.7166 35.0703 14.8203 34.4345 15.4851L22.1049 28.3545C21.3646 29.1274 20.0777 28.4195 20.3347 27.3794L23.301 15.3994C23.4638 14.7397 22.9651 14.1022 22.2865 14.1022H19.9577C19.2654 14.1022 18.765 13.4424 18.9501 12.7758L22.4836 0.110352Z" fill="#F2994A"/>
<defs>
<linearGradient id="paint0_linear_99_149" x1="9.139" y1="15.1104" x2="8.99994" y2="33" gradientUnits="userSpaceOnUse">
<stop stop-color="#0F035B"/>
<stop offset="1" stop-color="#1D06AD"/>
</linearGradient>
</defs>
</svg>
