<svg width="40" height="40" viewBox="0 0 40 40" fill="none" xmlns="http://www.w3.org/2000/svg">
<path d="M25.0642 38.1451H5.13734C3.06096 38.1451 1.37512 36.4592 1.37512 34.3805V13.3838C1.37512 11.305 3.06096 9.62158 5.13734 9.62158H25.0619C27.1406 9.62158 28.824 11.3074 28.824 13.3838V34.383C28.8265 36.4592 27.1431 38.1451 25.0642 38.1451Z" fill="#676767"/>
<path d="M17.3291 27.6636H5.85561C5.34864 27.6636 4.93628 27.2512 4.93628 26.7444C4.93628 26.2373 5.34864 25.825 5.85561 25.825H17.3291C17.836 25.825 18.2484 26.2373 18.2484 26.7444C18.2484 27.2512 17.836 27.6636 17.3291 27.6636Z" fill="#BDBDBD"/>
<path d="M12.6572 31.6832H5.85561C5.34864 31.6832 4.93628 31.2708 4.93628 30.7639C4.93628 30.2569 5.34864 29.8445 5.85561 29.8445H12.6572C13.1642 29.8445 13.5765 30.2569 13.5765 30.7639C13.5765 31.2732 13.1642 31.6832 12.6572 31.6832Z" fill="#BDBDBD"/>
<path d="M34.9839 21.3287C39.8396 16.473 39.8396 8.60032 34.9839 3.74459C30.1281 -1.11115 22.2556 -1.11115 17.3997 3.74459C12.544 8.60032 12.544 16.473 17.3997 21.3287C22.2556 26.1845 30.1281 26.1845 34.9839 21.3287Z" fill="#BDBDBD"/>
<path d="M31.9246 13.4347H26.0011C25.5063 13.4347 25.1061 13.0345 25.1061 12.5396V4.63434C25.1061 4.13951 25.5063 3.73926 26.0011 3.73926C26.496 3.73926 26.8962 4.13951 26.8962 4.63434V11.6421H31.9246C32.4194 11.6421 32.8196 12.0424 32.8196 12.5372C32.8196 13.032 32.4194 13.4347 31.9246 13.4347Z" fill="#676767"/>
<path d="M26.1923 25.0269C19.3058 25.0269 13.705 19.4237 13.705 12.5396C13.7025 5.65311 19.3058 0.0498047 26.1923 0.0498047C33.0789 0.0498047 38.6797 5.65311 38.6797 12.5372C38.6797 19.4237 33.0764 25.0269 26.1923 25.0269ZM26.1923 0.15896C19.3665 0.15896 13.8117 5.71376 13.8117 12.5396C13.8117 19.3654 19.3641 24.9202 26.1923 24.9202C33.0182 24.9202 38.573 19.3679 38.573 12.5396C38.573 5.71134 33.0182 0.15896 26.1923 0.15896Z" fill="#E0E0E0"/>
</svg>
