<svg width="29" height="29" viewBox="0 0 29 29" fill="none" xmlns="http://www.w3.org/2000/svg">
<path d="M25.375 2.41663L22.9583 4.83329M22.9583 4.83329L26.5833 8.45829L22.3541 12.6875L18.7291 9.06246M22.9583 4.83329L18.7291 9.06246M13.7629 14.0287C14.3868 14.6443 14.8828 15.3773 15.2222 16.1853C15.5617 16.9934 15.738 17.8607 15.741 18.7371C15.7439 19.6136 15.5734 20.482 15.2394 21.2924C14.9053 22.1027 14.4142 22.8389 13.7945 23.4587C13.1747 24.0785 12.4385 24.5695 11.6281 24.9036C10.8178 25.2377 9.94938 25.4081 9.0729 25.4052C8.19641 25.4023 7.32916 25.226 6.52109 24.8865C5.71301 24.547 4.98007 24.051 4.36447 23.4271C3.15387 22.1737 2.48401 20.495 2.49915 18.7524C2.51429 17.0099 3.21323 15.3431 4.44542 14.1109C5.67761 12.8787 7.34447 12.1797 9.08699 12.1646C10.8295 12.1495 12.5083 12.8193 13.7617 14.0299L13.7629 14.0287ZM13.7629 14.0287L18.7291 9.06246" stroke="url(#paint0_linear_25_927)" stroke-width="2" stroke-linecap="round" stroke-linejoin="round"/>
<defs>
<linearGradient id="paint0_linear_25_927" x1="22" y1="8" x2="12" y2="17.5" gradientUnits="userSpaceOnUse">
<stop stop-color="#F2994A"/>
<stop offset="1" stop-color="#0F035B"/>
</linearGradient>
</defs>
</svg>
