<svg width="40" height="40" viewBox="0 0 40 40" fill="none" xmlns="http://www.w3.org/2000/svg">
<path d="M22.4978 28.9256C22.4978 27.0475 20.9754 25.5251 19.0973 25.5251C17.2193 25.5251 15.6968 27.0475 15.6968 28.9256C15.6968 30.8037 17.2193 32.3262 19.0973 32.3262C20.9754 32.3262 22.4978 30.8037 22.4978 28.9256Z" fill="white"/>
<path d="M22.4978 19.6798C22.4978 17.8017 20.9754 16.2792 19.0973 16.2792C17.2193 16.2792 15.6968 17.8017 15.6968 19.6798C15.6968 21.5578 17.2193 23.0803 19.0973 23.0803C20.9754 23.0803 22.4978 21.5578 22.4978 19.6798Z" fill="#F2994A"/>
<path d="M22.4978 10.4341C22.4978 8.55605 20.9754 7.03357 19.0973 7.03357C17.2193 7.03357 15.6968 8.55605 15.6968 10.4341C15.6968 12.3122 17.2193 13.8347 19.0973 13.8347C20.9754 13.8347 22.4978 12.3122 22.4978 10.4341Z" fill="white"/>
</svg>
