<svg width="20" height="12" viewBox="0 0 20 12" fill="none" xmlns="http://www.w3.org/2000/svg">
<path d="M9.72497 3.50462C11.9341 3.50462 13.725 5.2955 13.725 7.5046C13.725 9.7138 11.9341 11.5046 9.72497 11.5046C7.51583 11.5046 5.72497 9.7138 5.72497 7.5046C5.72497 5.2955 7.51583 3.50462 9.72497 3.50462ZM9.72497 0C14.3385 0 18.3211 3.15001 19.4261 7.5644C19.5267 7.9662 19.2825 8.3735 18.8807 8.4741C18.4789 8.5746 18.0716 8.3305 17.971 7.9286C17.0321 4.17796 13.6464 1.5 9.72497 1.5C5.8019 1.5 2.41506 4.18026 1.47782 7.9332C1.37746 8.335 0.970325 8.5794 0.568455 8.4791C0.166585 8.3787 -0.0778353 7.9716 0.0225247 7.5697C1.12561 3.15272 5.10945 0 9.72497 0Z" fill="#0F035B"/>
</svg>
