<svg width="37" height="40" viewBox="0 0 37 40" fill="none" xmlns="http://www.w3.org/2000/svg">
<path d="M27.8039 28.6104V34.9327C27.8039 35.683 27.1463 36.2929 26.3372 36.2929H2.7251C1.91582 36.2929 1.25842 35.683 1.25842 34.9327V28.6104C1.25842 24.063 3.70215 20.3746 10.1424 20.3746C10.3577 20.3791 10.5845 20.3837 10.827 20.3837C11.8766 20.3883 13.1596 20.3452 14.5334 20.3271C15.9071 20.3452 17.1879 20.3883 18.2375 20.3837C18.4778 20.3837 18.7067 20.3814 18.9221 20.3746C25.3623 20.3769 27.8039 24.063 27.8039 28.6104Z" fill="#0F035B"/>
<path d="M15.4057 17.6834C20.0301 16.9329 23.1706 12.5756 22.42 7.95115C21.6695 3.32669 17.3123 0.186245 12.6878 0.936764C8.06339 1.68728 4.92293 6.04455 5.67346 10.669C6.42398 15.2935 10.7813 18.4339 15.4057 17.6834Z" fill="#F2994A"/>
<mask id="mask0_24_317" style="mask-type:alpha" maskUnits="userSpaceOnUse" x="18" y="23" width="17" height="17">
<path d="M26.7655 39.0313C31.0861 39.0313 34.5886 35.5289 34.5886 31.2083C34.5886 26.8877 31.0861 23.3853 26.7655 23.3853C22.4449 23.3853 18.9425 26.8877 18.9425 31.2083C18.9425 35.5289 22.4449 39.0313 26.7655 39.0313Z" fill="url(#paint0_linear_24_317)"/>
</mask>
<g mask="url(#mask0_24_317)">
<path d="M34.5908 31.2082C34.4164 41.4932 19.1171 41.4909 18.9425 31.2082C19.1171 20.9233 34.4164 20.9256 34.5908 31.2082Z" fill="#1D06AD"/>
<path d="M26.5527 34.2847C26.3192 34.6338 22.7512 30.2292 22.5653 30.1294C22.0144 29.5287 22.9687 28.6763 23.5038 29.2929L26.4982 32.6525L29.8375 27.9805C30.2999 27.3117 31.3449 28.0529 30.8598 28.7104C30.5855 28.8963 26.9994 34.602 26.5527 34.2847Z" fill="white"/>
</g>
<defs>
<linearGradient id="paint0_linear_24_317" x1="18.9422" y1="31.2091" x2="34.5905" y2="31.2091" gradientUnits="userSpaceOnUse">
<stop offset="0.00129175" stop-color="#B3B3B3"/>
<stop offset="1" stop-color="#808080"/>
</linearGradient>
</defs>
</svg>
