<svg width="29" height="32" viewBox="0 0 29 32" fill="none" xmlns="http://www.w3.org/2000/svg">
<path d="M22.2431 22.8884V27.9463C22.2431 28.5465 21.717 29.0344 21.0697 29.0344H2.18005C1.53263 29.0344 1.00671 28.5465 1.00671 27.9463V22.8884C1.00671 19.2505 2.96169 16.2998 8.11389 16.2998C8.28617 16.3034 8.46754 16.3071 8.66158 16.3071C9.50124 16.3108 10.5277 16.2763 11.6267 16.2618C12.7257 16.2763 13.7503 16.3108 14.59 16.3071C14.7822 16.3071 14.9654 16.3053 15.1376 16.2998C20.2898 16.3016 22.2431 19.2505 22.2431 22.8884Z" fill="#0F035B"/>
<path d="M12.3245 14.1466C16.024 13.5462 18.5365 10.0604 17.936 6.36082C17.3356 2.66125 13.8498 0.148898 10.1502 0.749314C6.45068 1.34973 3.93832 4.83555 4.53875 8.53511C5.13916 12.2347 8.62498 14.747 12.3245 14.1466Z" fill="#0F035B"/>
<path d="M27.6727 24.9666C27.5331 33.1945 15.2938 33.1927 15.1541 24.9666C15.2938 16.7386 27.5331 16.7404 27.6727 24.9666Z" fill="#F2994A"/>
<path d="M21.2422 27.4277C21.0554 27.707 18.201 24.1833 18.0523 24.1035C17.6116 23.6229 18.375 22.941 18.8031 23.4342L21.1986 26.1219L23.87 22.3843C24.24 21.8493 25.076 22.4422 24.6879 22.9682C24.4684 23.117 21.5995 27.6815 21.2422 27.4277Z" fill="white"/>
</svg>
