<svg width="34" height="37" viewBox="0 0 34 37" fill="none" xmlns="http://www.w3.org/2000/svg">
<path d="M25.7185 26.4647V32.3128C25.7185 33.0069 25.1103 33.571 24.3618 33.571H2.52062C1.77204 33.571 1.16394 33.0069 1.16394 32.3128V26.4647C1.16394 22.2584 3.42438 18.8466 9.38161 18.8466C9.58081 18.8508 9.79052 18.8551 10.0149 18.8551C10.9857 18.8593 12.1726 18.8195 13.4433 18.8027C14.714 18.8195 15.8987 18.8593 16.8696 18.8551C17.0918 18.8551 17.3036 18.8529 17.5028 18.8466C23.4601 18.8487 25.7185 22.2584 25.7185 26.4647Z" fill="#676767"/>
<path d="M14.2503 16.3571C18.5279 15.6628 21.4329 11.6323 20.7386 7.35474C20.0444 3.07712 16.0139 0.172209 11.7363 0.86644C7.45871 1.56067 4.55379 5.59115 5.24803 9.86877C5.94226 14.1464 9.97274 17.0513 14.2503 16.3571Z" fill="#BDBDBD"/>
<mask id="mask0_24_325" style="mask-type:alpha" maskUnits="userSpaceOnUse" x="17" y="21" width="15" height="16">
<path d="M24.7581 36.104C28.7547 36.104 31.9945 32.8642 31.9945 28.8677C31.9945 24.8711 28.7547 21.6313 24.7581 21.6313C20.7616 21.6313 17.5219 24.8711 17.5219 28.8677C17.5219 32.8642 20.7616 36.104 24.7581 36.104Z" fill="url(#paint0_linear_24_325)"/>
</mask>
<g mask="url(#mask0_24_325)">
<path d="M31.9966 28.8675C31.8352 38.3811 17.6834 38.379 17.5219 28.8675C17.6834 19.354 31.8352 19.3561 31.9966 28.8675Z" fill="#BDBDBD"/>
<path d="M24.5613 31.7133C24.3453 32.0362 21.0449 27.962 20.8729 27.8697C20.3634 27.314 21.2461 26.5255 21.741 27.0959L24.5109 30.2035L27.5997 25.8819C28.0275 25.2633 28.9941 25.9488 28.5453 26.5571C28.2916 26.729 24.9745 32.0068 24.5613 31.7133Z" fill="white"/>
</g>
<defs>
<linearGradient id="paint0_linear_24_325" x1="17.5216" y1="28.8684" x2="31.9962" y2="28.8684" gradientUnits="userSpaceOnUse">
<stop offset="0.00129175" stop-color="#B3B3B3"/>
<stop offset="1" stop-color="#808080"/>
</linearGradient>
</defs>
</svg>
