<svg width="22" height="20" viewBox="0 0 22 20" fill="none" xmlns="http://www.w3.org/2000/svg">
<path d="M21.0833 1.74994C20.2055 2.36913 19.2336 2.84271 18.205 3.15244C17.6529 2.51766 16.9192 2.06774 16.1031 1.86354C15.287 1.65934 14.4278 1.7107 13.6419 2.01069C12.8559 2.31068 12.181 2.84481 11.7085 3.54085C11.236 4.23689 10.9887 5.06125 11 5.90244V6.81911C9.38904 6.86088 7.79279 6.5036 6.35338 5.7791C4.91397 5.0546 3.67608 3.98536 2.74996 2.66661C2.74996 2.66661 -0.916708 10.9166 7.33329 14.5833C5.44544 15.8647 3.19652 16.5073 0.916626 16.4166C9.16663 20.9999 19.25 16.4166 19.25 5.87494C19.2491 5.61961 19.2246 5.3649 19.1766 5.11411C20.1122 4.19148 20.7724 3.02659 21.0833 1.74994V1.74994Z" stroke="url(#paint0_linear_25_960)" stroke-width="2" stroke-linecap="round" stroke-linejoin="round"/>
<defs>
<linearGradient id="paint0_linear_25_960" x1="11" y1="5.3388" x2="11" y2="18.1891" gradientUnits="userSpaceOnUse">
<stop stop-color="#0F035B"/>
<stop offset="1" stop-color="#F2994A"/>
</linearGradient>
</defs>
</svg>
