<svg width="40" height="30" viewBox="0 0 40 30" fill="none" xmlns="http://www.w3.org/2000/svg">
<path d="M34.7059 30.5584H4.64268C2.24068 30.5584 0.292847 28.5095 0.292847 25.9827V7.37585C0.292847 4.84907 2.24068 2.80005 4.64268 2.80005H34.7059C37.108 2.80005 39.0559 4.84907 39.0559 7.37585V25.9827C39.0559 28.5095 37.108 30.5584 34.7059 30.5584Z" fill="#676767"/>
<path d="M5.65366 28.994C5.39345 28.994 5.13942 28.9679 4.89391 28.9183L4.85427 29.1143C4.31815 29.0059 3.81999 28.7906 3.38232 28.4912L3.49524 28.3261C3.0744 28.0382 2.71215 27.6684 2.43083 27.2392L2.26355 27.3488C1.97421 26.9073 1.76644 26.4061 1.66208 25.8672L1.85843 25.8292C1.81073 25.5829 1.78569 25.3282 1.78569 25.0674V24.0186H1.58569V21.921H1.78569V19.8234H1.58569V17.7259H1.78569V15.6283H1.58569V13.5308H1.78569V11.4332H1.58569V9.33562H1.78569V8.28683C1.78569 8.02601 1.81073 7.77131 1.85843 7.52501L1.66208 7.48698C1.76644 6.94815 1.97422 6.4469 2.26356 6.00539L2.43084 6.11502C2.71216 5.68575 3.07441 5.31595 3.49525 5.02806L3.38233 4.86299C3.81999 4.56358 4.31815 4.34825 4.85427 4.23984L4.89391 4.43587C5.13942 4.38623 5.39345 4.36016 5.65366 4.36016H6.65778V4.16016H8.666V4.36016H10.6742V4.16016H12.6825V4.36016H14.6907V4.16016H16.6989V4.36016H18.7071V4.16016H20.7154V4.36016H22.7236V4.16016H24.7318V4.36016H26.74V4.16016H28.7483V4.36016H30.7565V4.16016H32.7647V4.36016H33.7688C34.0291 4.36016 34.2831 4.38622 34.5286 4.43587L34.5682 4.23984C35.1044 4.34824 35.6025 4.56357 36.0402 4.86297L35.9273 5.02804C36.3481 5.31594 36.7104 5.68573 36.9917 6.115L37.159 6.00537C37.4484 6.44688 37.6562 6.94813 37.7605 7.48697L37.5642 7.525C37.6119 7.7713 37.6369 8.02601 37.6369 8.28683V9.33562H37.8369V11.4332H37.6369V13.5308H37.8369V15.6283H37.6369V17.7259H37.8369V19.8234H37.6369V21.921H37.8369V24.0186H37.6369V25.0674C37.6369 25.3282 37.6119 25.5829 37.5642 25.8292L37.7605 25.8672C37.6562 26.4061 37.4484 26.9073 37.159 27.3488L36.9918 27.2392C36.7104 27.6685 36.3482 28.0383 35.9273 28.3261L36.0402 28.4912C35.6025 28.7906 35.1044 29.0059 34.5682 29.1143L34.5286 28.9183C34.2831 28.9679 34.0291 28.994 33.7688 28.994H32.7647V29.194H30.7565V28.994H28.7483V29.194H26.74V28.994H24.7318V29.194H22.7236V28.994H20.7154V29.194H18.7071V28.994H16.6989V29.194H14.6907V28.994H12.6825V29.194H10.6742V28.994H8.66601V29.194H6.65778V28.994H5.65366Z" fill="#676767" stroke="#E0E0E0" stroke-width="0.4" stroke-linejoin="round" stroke-dasharray="2 2"/>
<path d="M16.2 0.2H22.8V8C22.8 8.99411 21.9941 9.8 21 9.8H18C17.0059 9.8 16.2 8.99411 16.2 8V0.2Z" fill="#BDBDBD" stroke="#E0E0E0" stroke-width="0.4"/>
<circle cx="19.5" cy="6.5" r="1.5" fill="#676767"/>
</svg>
