<svg width="47" height="36" viewBox="0 0 47 36" fill="none" xmlns="http://www.w3.org/2000/svg">
<g clip-path="url(#clip0_22_20)">
<path d="M39.8865 36.5912H6.30335C3.62011 36.5912 1.44421 34.4217 1.44421 31.7463V12.0449C1.44421 9.3695 3.62011 7.19995 6.30335 7.19995H39.8865C42.5698 7.19995 44.7458 9.3695 44.7458 12.0449V31.7463C44.7458 34.4217 42.5698 36.5912 39.8865 36.5912Z" fill="#0F035B"/>
<path d="M7.43269 34.9463C7.14733 34.9463 6.86857 34.9199 6.59886 34.8696L6.56217 35.0662C5.97365 34.9564 5.42563 34.7373 4.94187 34.4319L5.04864 34.2628C4.57196 33.9618 4.16098 33.5734 3.84029 33.1218L3.67722 33.2376C3.34181 32.7653 3.10024 32.2265 2.97836 31.6461L3.17409 31.605C3.11793 31.3375 3.08843 31.0606 3.08843 30.7769V29.6665H2.88843V27.4455H3.08843V25.2246H2.88843V23.0036H3.08843V20.7826H2.88843V18.5617H3.08843V16.3407H2.88843V14.1198H3.08843V13.0093C3.08843 12.7256 3.11793 12.4488 3.1741 12.1813L2.97836 12.1402C3.10025 11.5597 3.34182 11.0209 3.67723 10.5486L3.8403 10.6644C4.16099 10.2128 4.57197 9.82443 5.04865 9.52345L4.94187 9.35434C5.42563 9.04889 5.97365 8.82984 6.56217 8.72001L6.59886 8.91662C6.86857 8.86629 7.14733 8.83989 7.43269 8.83989H8.41416V8.63989H10.3771V8.83989H12.34V8.63989H14.303V8.83989H16.2659V8.63989H18.2289V8.83989H20.1918V8.63989H22.1547V8.83989H24.1177V8.63989H26.0806V8.83989H28.0436V8.63989H30.0065V8.83989H31.9694V8.63989H33.9324V8.83989H35.8953V8.63989H37.8582V8.83989H38.8397C39.1251 8.83989 39.4039 8.86629 39.6736 8.91662L39.7102 8.72001C40.2988 8.82983 40.8468 9.04888 41.3306 9.35433L41.2238 9.52344C41.7005 9.82442 42.1115 10.2128 42.4322 10.6644L42.5952 10.5486C42.9307 11.0209 43.1723 11.5597 43.2942 12.1402L43.0984 12.1813C43.1546 12.4488 43.1841 12.7256 43.1841 13.0093V14.1198H43.3841V16.3407H43.1841V18.5617H43.3841V20.7826H43.1841V23.0036H43.3841V25.2246H43.1841V27.4455H43.3841V29.6665H43.1841V30.7769C43.1841 31.0606 43.1546 31.3375 43.0984 31.605L43.2942 31.6461C43.1723 32.2266 42.9307 32.7654 42.5953 33.2377L42.4322 33.1219C42.1115 33.5734 41.7005 33.9618 41.2238 34.2628L41.3306 34.4319C40.8468 34.7373 40.2988 34.9564 39.7102 35.0662L39.6736 34.8696C39.4039 34.9199 39.1251 34.9463 38.8397 34.9463H37.8582V35.1463H35.8953V34.9463H33.9324V35.1463H31.9694V34.9463H30.0065V35.1463H28.0435V34.9463H26.0806V35.1463H24.1177V34.9463H22.1547V35.1463H20.1918V34.9463H18.2289V35.1463H16.2659V34.9463H14.303V35.1463H12.34V34.9463H10.3771V35.1463H8.41416V34.9463H7.43269Z" fill="url(#paint0_linear_22_20)" stroke="#BDBDBD" stroke-width="0.4" stroke-linejoin="round" stroke-dasharray="2 2"/>
<path d="M19.2 3.2H25.8V11C25.8 11.9941 24.9941 12.8 24 12.8H21C20.0059 12.8 19.2 11.9941 19.2 11V3.2Z" fill="#0F035B" stroke="#BDBDBD" stroke-width="0.4"/>
<circle cx="22.5" cy="9.5" r="1.5" fill="#F2994A"/>
</g>
<defs>
<linearGradient id="paint0_linear_22_20" x1="12.2758" y1="19.4399" x2="31.7712" y2="21.6124" gradientUnits="userSpaceOnUse">
<stop stop-color="#0F035B"/>
<stop offset="1" stop-color="#1D06AD"/>
</linearGradient>
<clipPath id="clip0_22_20">
<rect width="46.4211" height="36" fill="white"/>
</clipPath>
</defs>
</svg>
