<svg width="24" height="24" viewBox="0 0 24 24" fill="none" xmlns="http://www.w3.org/2000/svg">
<path d="M21 11.5C21.0034 12.8199 20.6951 14.1219 20.1 15.3C19.3944 16.7118 18.3098 17.8992 16.9674 18.7293C15.6251 19.5594 14.0782 19.9994 12.5 20C11.1801 20.0035 9.87812 19.6951 8.7 19.1L3 21L4.9 15.3C4.30493 14.1219 3.99656 12.8199 4 11.5C4.00061 9.92179 4.44061 8.37488 5.27072 7.03258C6.10083 5.69028 7.28825 4.6056 8.7 3.90003C9.87812 3.30496 11.1801 2.99659 12.5 3.00003H13C15.0843 3.11502 17.053 3.99479 18.5291 5.47089C20.0052 6.94699 20.885 8.91568 21 11V11.5Z" stroke="url(#paint0_linear_25_974)" stroke-width="2" stroke-linecap="round" stroke-linejoin="round"/>
<path d="M15.914 13.9371V15.1309C15.9145 15.2417 15.8918 15.3514 15.8474 15.453C15.803 15.5545 15.7379 15.6457 15.6562 15.7206C15.5746 15.7955 15.4781 15.8525 15.3732 15.8881C15.2682 15.9236 15.1569 15.9367 15.0466 15.9268C13.8221 15.7937 12.6459 15.3753 11.6124 14.7051C10.651 14.0942 9.83582 13.279 9.22487 12.3176C8.55236 11.2794 8.13385 10.0975 8.00323 8.86752C7.99329 8.75748 8.00636 8.64658 8.04163 8.54187C8.0769 8.43716 8.13358 8.34094 8.20807 8.25934C8.28256 8.17773 8.37323 8.11254 8.47429 8.06789C8.57536 8.02325 8.68462 8.00014 8.79511 8.00004H9.98889C10.182 7.99814 10.3692 8.06652 10.5157 8.19245C10.6621 8.31838 10.7577 8.49325 10.7847 8.68448C10.8351 9.06651 10.9286 9.44162 11.0633 9.80265C11.1168 9.94508 11.1284 10.0999 11.0967 10.2487C11.0649 10.3975 10.9912 10.5341 10.8842 10.6423L10.3789 11.1477C10.9453 12.1439 11.7702 12.9687 12.7664 13.5352L13.2718 13.0299C13.38 12.9229 13.5166 12.8491 13.6654 12.8174C13.8142 12.7857 13.969 12.7972 14.1114 12.8508C14.4725 12.9855 14.8476 13.0789 15.2296 13.1293C15.4229 13.1566 15.5994 13.254 15.7256 13.4029C15.8518 13.5518 15.9189 13.742 15.914 13.9371Z" stroke="url(#paint1_linear_25_974)" stroke-linecap="round" stroke-linejoin="round"/>
<defs>
<linearGradient id="paint0_linear_25_974" x1="12" y1="6.93751" x2="12" y2="21" gradientUnits="userSpaceOnUse">
<stop stop-color="#0F035B"/>
<stop offset="1" stop-color="#F2994A"/>
</linearGradient>
<linearGradient id="paint1_linear_25_974" x1="11.9571" y1="9.73469" x2="11.9571" y2="15.93" gradientUnits="userSpaceOnUse">
<stop stop-color="#0F035B"/>
<stop offset="1" stop-color="#F2994A"/>
</linearGradient>
</defs>
</svg>
